<?xml version="1.0" standalone="no"?>
<!DOCTYPE svg PUBLIC "-//W3C//DTD SVG 20010904//EN"
 "http://www.w3.org/TR/2001/REC-SVG-20010904/DTD/svg10.dtd">
<svg version="1.0" xmlns="http://www.w3.org/2000/svg"
 width="703.000000pt" height="703.000000pt" viewBox="0 0 703.000000 703.000000"
 preserveAspectRatio="xMidYMid meet">
<metadata>
Created by potrace 1.11, written by Peter Selinger 2001-2013
</metadata>
<g transform="translate(0.000000,703.000000) scale(0.100000,-0.100000)"
fill="#000000" stroke="none">
<path d="M3950 6758 l0 -195 46 -7 c26 -3 75 -6 109 -6 121 0 374 -43 560 -96
256 -73 530 -199 758 -351 564 -375 966 -941 1134 -1598 43 -170 72 -360 73
-485 0 -41 3 -92 6 -112 l7 -38 195 0 195 0 -7 178 c-8 223 -46 462 -106 665
-22 75 -93 279 -115 332 -55 131 -98 217 -195 390 -84 150 -236 354 -389 522
-124 137 -349 336 -477 423 -170 115 -231 153 -339 210 -44 24 -87 47 -95 51
-19 10 -113 52 -188 83 -175 72 -403 141 -567 171 -210 38 -269 45 -432 51
l-173 7 0 -195z"/>
<path d="M3950 5986 l0 -195 53 -5 c28 -3 91 -8 139 -11 140 -8 419 -79 558
-141 190 -85 383 -207 526 -332 174 -153 350 -387 446 -592 51 -110 68 -149
68 -160 0 -5 4 -18 9 -28 15 -28 39 -102 55 -172 39 -163 46 -207 51 -288 3
-48 8 -111 11 -139 l5 -53 195 0 194 0 0 94 c0 178 -40 409 -108 621 -210 652
-705 1180 -1347 1435 -237 94 -540 159 -752 160 l-103 0 0 -194z"/>
<path d="M3950 5217 l0 -196 43 -5 c23 -3 72 -8 109 -11 36 -3 79 -9 95 -14
15 -5 62 -19 103 -32 145 -43 318 -143 441 -258 123 -114 250 -319 299 -483
12 -40 26 -86 31 -101 5 -16 11 -59 14 -95 3 -37 8 -86 11 -109 l5 -43 196 0
196 0 -6 118 c-27 522 -356 1018 -834 1256 -198 99 -393 153 -580 163 l-123 6
0 -196z"/>
<path d="M898 4683 c12 -2 32 -2 45 0 12 2 2 4 -23 4 -25 0 -35 -2 -22 -4z"/>
<path d="M2608 4683 c12 -2 30 -2 40 0 9 3 -1 5 -23 4 -22 0 -30 -2 -17 -4z"/>
<path d="M1750 4664 c-497 -20 -893 -45 -1020 -64 -188 -28 -337 -127 -444
-293 -53 -84 -113 -247 -135 -368 -41 -225 -40 -212 -73 -654 -18 -236 -18
-1569 0 -1830 19 -279 32 -420 48 -515 47 -288 105 -447 207 -571 181 -219
371 -259 1367 -289 985 -30 2305 9 2562 75 128 32 234 105 327 224 137 175
215 493 241 979 27 491 32 723 26 1162 -3 256 -6 472 -7 480 0 8 -7 137 -15
285 -14 284 -33 470 -59 595 -23 111 -56 234 -66 245 -5 5 -9 16 -9 25 0 27
-66 153 -110 210 -146 188 -290 245 -665 264 -61 4 -132 8 -160 11 -142 13
-218 19 -295 21 -149 5 -1632 11 -1720 8z m211 -1231 c48 -38 138 -107 200
-155 63 -48 183 -140 268 -205 84 -65 197 -151 250 -192 53 -40 110 -84 126
-96 17 -13 73 -56 125 -96 52 -40 138 -106 190 -147 52 -40 123 -94 157 -120
34 -26 62 -50 63 -54 0 -3 -24 -24 -52 -45 -29 -21 -60 -43 -68 -50 -100 -79
-412 -319 -470 -362 -41 -30 -84 -64 -95 -74 -11 -11 -31 -26 -45 -35 -14 -9
-74 -55 -135 -102 -60 -47 -144 -111 -185 -142 -41 -31 -151 -115 -245 -187
-93 -72 -173 -131 -177 -131 -5 0 -8 509 -8 1130 0 622 3 1130 8 1130 4 0 46
-30 93 -67z"/>
<path d="M33 4653 c9 -2 25 -2 35 0 9 3 1 5 -18 5 -19 0 -27 -2 -17 -5z"/>
</g>
</svg>
